<mxfile host="drawio-plugin" modified="2022-12-23T20:20:02.784Z" agent="5.0 (Macintosh; Intel Mac OS X 10_15_7) AppleWebKit/537.36 (KHTML, like Gecko) Chrome/104.0.5112.102 Safari/537.36" etag="oyFnYARV6yZeFbUO8P1K" version="20.5.3" type="embed" pages="2"><diagram id="j2BXZ4_hQeI_ByrBw5EK" name="Page-1"><mxGraphModel dx="1573" dy="1120" grid="1" gridSize="10" guides="1" tooltips="1" connect="1" arrows="1" fold="1" page="1" pageScale="1" pageWidth="827" pageHeight="1169" math="0" shadow="0"><root><mxCell id="0"/><mxCell id="1" parent="0"/><mxCell id="cFvfwLcXu9r0Pdm2lPaQ-8" value="" style="edgeStyle=orthogonalEdgeStyle;rounded=0;orthogonalLoop=1;jettySize=auto;html=1;fontSize=18;curved=1;exitX=0;exitY=0.5;exitDx=0;exitDy=0;" parent="1" source="cFvfwLcXu9r0Pdm2lPaQ-19" target="cFvfwLcXu9r0Pdm2lPaQ-7" edge="1"><mxGeometry relative="1" as="geometry"><mxPoint x="440" y="555" as="sourcePoint"/></mxGeometry></mxCell><mxCell id="cFvfwLcXu9r0Pdm2lPaQ-12" value="2b" style="edgeLabel;html=1;align=center;verticalAlign=middle;resizable=0;points=[];fontSize=18;" parent="cFvfwLcXu9r0Pdm2lPaQ-8" vertex="1" connectable="0"><mxGeometry x="0.3659" y="8" relative="1" as="geometry"><mxPoint x="37" y="4" as="offset"/></mxGeometry></mxCell><mxCell id="cFvfwLcXu9r0Pdm2lPaQ-2" value="" style="shape=actor;whiteSpace=wrap;html=1;" parent="1" vertex="1"><mxGeometry x="10" y="240" width="40" height="60" as="geometry"/></mxCell><mxCell id="cFvfwLcXu9r0Pdm2lPaQ-3" value="OStorage" style="ellipse;whiteSpace=wrap;html=1;" parent="1" vertex="1"><mxGeometry x="-40" y="410" width="120" height="80" as="geometry"/></mxCell><mxCell id="cFvfwLcXu9r0Pdm2lPaQ-4" value="" style="curved=1;endArrow=classic;html=1;rounded=0;exitX=0.5;exitY=1;exitDx=0;exitDy=0;entryX=0;entryY=0.5;entryDx=0;entryDy=0;" parent="1" source="cFvfwLcXu9r0Pdm2lPaQ-2" target="cFvfwLcXu9r0Pdm2lPaQ-18" edge="1"><mxGeometry width="50" height="50" relative="1" as="geometry"><mxPoint x="170" y="360" as="sourcePoint"/><mxPoint x="287.57359312880726" y="351.7157287525383" as="targetPoint"/><Array as="points"><mxPoint x="190" y="340"/></Array></mxGeometry></mxCell><mxCell id="cFvfwLcXu9r0Pdm2lPaQ-10" value="1" style="edgeLabel;html=1;align=center;verticalAlign=middle;resizable=0;points=[];fontSize=18;" parent="cFvfwLcXu9r0Pdm2lPaQ-4" vertex="1" connectable="0"><mxGeometry x="-0.1186" y="5" relative="1" as="geometry"><mxPoint y="-2" as="offset"/></mxGeometry></mxCell><mxCell id="cFvfwLcXu9r0Pdm2lPaQ-5" value="" style="curved=1;endArrow=classic;html=1;rounded=0;exitX=1;exitY=0;exitDx=0;exitDy=0;entryX=0;entryY=0.5;entryDx=0;entryDy=0;" parent="1" source="cFvfwLcXu9r0Pdm2lPaQ-3" target="cFvfwLcXu9r0Pdm2lPaQ-20" edge="1"><mxGeometry width="50" height="50" relative="1" as="geometry"><mxPoint x="390" y="600" as="sourcePoint"/><mxPoint x="740" y="370" as="targetPoint"/><Array as="points"><mxPoint x="200" y="400"/></Array></mxGeometry></mxCell><mxCell id="cFvfwLcXu9r0Pdm2lPaQ-11" value="&amp;nbsp;1'&amp;nbsp;" style="edgeLabel;html=1;align=center;verticalAlign=middle;resizable=0;points=[];fontSize=18;" parent="cFvfwLcXu9r0Pdm2lPaQ-5" vertex="1" connectable="0"><mxGeometry x="-0.0103" y="-6" relative="1" as="geometry"><mxPoint x="-3" y="2" as="offset"/></mxGeometry></mxCell><mxCell id="cFvfwLcXu9r0Pdm2lPaQ-7" value="&lt;font style=&quot;font-size: 18px&quot;&gt;drawio.Controller&lt;/font&gt;" style="ellipse;whiteSpace=wrap;html=1;" parent="1" vertex="1"><mxGeometry x="90" y="505" width="150" height="80" as="geometry"/></mxCell><mxCell id="cFvfwLcXu9r0Pdm2lPaQ-17" value="Calculator" style="swimlane;fontStyle=0;childLayout=stackLayout;horizontal=1;startSize=30;horizontalStack=0;resizeParent=1;resizeParentMax=0;resizeLast=0;collapsible=1;marginBottom=0;fontSize=18;glass=1;labelPadding=0;" parent="1" vertex="1"><mxGeometry x="290" y="310" width="300" height="180" as="geometry"><mxRectangle x="290" y="310" width="110" height="30" as="alternateBounds"/></mxGeometry></mxCell><mxCell id="cFvfwLcXu9r0Pdm2lPaQ-18" value="RestApi::POST" style="text;strokeColor=none;fillColor=none;align=left;verticalAlign=middle;spacingLeft=4;spacingRight=4;overflow=hidden;points=[[0,0.5],[1,0.5]];portConstraint=eastwest;rotatable=0;fontSize=18;" parent="cFvfwLcXu9r0Pdm2lPaQ-17" vertex="1"><mxGeometry y="30" width="300" height="30" as="geometry"/></mxCell><mxCell id="cFvfwLcXu9r0Pdm2lPaQ-34" value="OStorageInterface::Upload" style="text;strokeColor=none;fillColor=none;align=left;verticalAlign=middle;spacingLeft=4;spacingRight=4;overflow=hidden;points=[[0,0.5],[1,0.5]];portConstraint=eastwest;rotatable=0;glass=1;fontSize=18;" parent="cFvfwLcXu9r0Pdm2lPaQ-17" vertex="1"><mxGeometry y="60" width="300" height="30" as="geometry"/></mxCell><mxCell id="cFvfwLcXu9r0Pdm2lPaQ-20" value="OStorageInterface::Load" style="text;strokeColor=none;fillColor=none;align=left;verticalAlign=middle;spacingLeft=4;spacingRight=4;overflow=hidden;points=[[0,0.5],[1,0.5]];portConstraint=eastwest;rotatable=0;fontSize=18;" parent="cFvfwLcXu9r0Pdm2lPaQ-17" vertex="1"><mxGeometry y="90" width="300" height="30" as="geometry"/></mxCell><mxCell id="cFvfwLcXu9r0Pdm2lPaQ-19" value="DiagramInterface::XmlToItems" style="text;strokeColor=none;fillColor=none;align=left;verticalAlign=middle;spacingLeft=4;spacingRight=4;overflow=hidden;points=[[0,0.5],[1,0.5]];portConstraint=eastwest;rotatable=0;fontSize=18;html=1;" parent="cFvfwLcXu9r0Pdm2lPaQ-17" vertex="1"><mxGeometry y="120" width="300" height="30" as="geometry"/></mxCell><mxCell id="cFvfwLcXu9r0Pdm2lPaQ-26" value="GStorage::PushItem" style="text;strokeColor=none;fillColor=none;align=left;verticalAlign=middle;spacingLeft=4;spacingRight=4;overflow=hidden;points=[[0,0.5],[1,0.5]];portConstraint=eastwest;rotatable=0;glass=1;fontSize=18;" parent="cFvfwLcXu9r0Pdm2lPaQ-17" vertex="1"><mxGeometry y="150" width="300" height="30" as="geometry"/></mxCell><mxCell id="cFvfwLcXu9r0Pdm2lPaQ-27" value="" style="curved=1;endArrow=classic;html=1;rounded=0;fontSize=18;" parent="1" source="cFvfwLcXu9r0Pdm2lPaQ-7" target="cFvfwLcXu9r0Pdm2lPaQ-26" edge="1"><mxGeometry width="50" height="50" relative="1" as="geometry"><mxPoint x="400" y="570" as="sourcePoint"/><mxPoint x="450" y="520" as="targetPoint"/><Array as="points"><mxPoint x="220" y="470"/></Array></mxGeometry></mxCell><mxCell id="cFvfwLcXu9r0Pdm2lPaQ-28" value="3" style="edgeLabel;html=1;align=center;verticalAlign=middle;resizable=0;points=[];fontSize=18;" parent="cFvfwLcXu9r0Pdm2lPaQ-27" vertex="1" connectable="0"><mxGeometry x="0.266" y="-15" relative="1" as="geometry"><mxPoint x="-9" y="-7" as="offset"/></mxGeometry></mxCell><mxCell id="cFvfwLcXu9r0Pdm2lPaQ-29" value="GStorage" style="ellipse;whiteSpace=wrap;html=1;glass=1;fontSize=18;" parent="1" vertex="1"><mxGeometry x="690" y="490" width="120" height="80" as="geometry"/></mxCell><mxCell id="cFvfwLcXu9r0Pdm2lPaQ-30" value="" style="curved=1;endArrow=classic;html=1;rounded=0;fontSize=18;exitX=1;exitY=0.5;exitDx=0;exitDy=0;entryX=0;entryY=0;entryDx=0;entryDy=0;" parent="1" source="cFvfwLcXu9r0Pdm2lPaQ-26" target="cFvfwLcXu9r0Pdm2lPaQ-29" edge="1"><mxGeometry width="50" height="50" relative="1" as="geometry"><mxPoint x="640" y="480" as="sourcePoint"/><mxPoint x="690" y="430" as="targetPoint"/><Array as="points"><mxPoint x="680" y="470"/></Array></mxGeometry></mxCell><mxCell id="cFvfwLcXu9r0Pdm2lPaQ-31" value="4" style="edgeLabel;html=1;align=center;verticalAlign=middle;resizable=0;points=[];fontSize=18;" parent="cFvfwLcXu9r0Pdm2lPaQ-30" vertex="1" connectable="0"><mxGeometry x="-0.1835" y="-11" relative="1" as="geometry"><mxPoint y="1" as="offset"/></mxGeometry></mxCell><mxCell id="cFvfwLcXu9r0Pdm2lPaQ-32" value="" style="curved=1;endArrow=classic;html=1;rounded=0;fontSize=18;entryX=0.5;entryY=0;entryDx=0;entryDy=0;exitX=0;exitY=0.5;exitDx=0;exitDy=0;" parent="1" source="cFvfwLcXu9r0Pdm2lPaQ-34" target="cFvfwLcXu9r0Pdm2lPaQ-3" edge="1"><mxGeometry width="50" height="50" relative="1" as="geometry"><mxPoint x="280" y="390" as="sourcePoint"/><mxPoint x="150" y="380" as="targetPoint"/><Array as="points"><mxPoint x="130" y="350"/></Array></mxGeometry></mxCell><mxCell id="cFvfwLcXu9r0Pdm2lPaQ-33" value="2a" style="edgeLabel;html=1;align=center;verticalAlign=middle;resizable=0;points=[];fontSize=18;" parent="cFvfwLcXu9r0Pdm2lPaQ-32" vertex="1" connectable="0"><mxGeometry x="0.0233" y="-6" relative="1" as="geometry"><mxPoint x="-4" y="23" as="offset"/></mxGeometry></mxCell></root></mxGraphModel></diagram><diagram id="Y6_PfOeL8vAFTN9dma1x" name="Page-2"><mxGraphModel dx="358" dy="480" grid="1" gridSize="10" guides="1" tooltips="1" connect="1" arrows="1" fold="1" page="1" pageScale="1" pageWidth="827" pageHeight="1169" math="0" shadow="0"><root><mxCell id="0"/><mxCell id="1" parent="0"/><mxCell id="a76H_n0qe2778WBYgKAY-1" value="DiagramConverter" style="ellipse;whiteSpace=wrap;html=1;glass=1;fontSize=18;sketch=1;rounded=1;" parent="1" vertex="1"><mxGeometry x="1030" y="235" width="160" height="80" as="geometry"/></mxCell><mxCell id="a76H_n0qe2778WBYgKAY-2" value="OStorage" style="ellipse;whiteSpace=wrap;html=1;fontSize=18;glass=1;sketch=1;rounded=1;" parent="1" vertex="1"><mxGeometry x="1060" y="320" width="120" height="60" as="geometry"/></mxCell><mxCell id="a76H_n0qe2778WBYgKAY-6" value="GStorage" style="ellipse;whiteSpace=wrap;html=1;fontSize=18;glass=1;sketch=1;rounded=1;" parent="1" vertex="1"><mxGeometry x="1070" y="390" width="120" height="60" as="geometry"/></mxCell><mxCell id="a76H_n0qe2778WBYgKAY-8" value="type Diagram::Item" style="ellipse;whiteSpace=wrap;html=1;glass=1;fontSize=18;sketch=1;rounded=1;" parent="1" vertex="1"><mxGeometry x="376" y="30" width="196" height="80" as="geometry"/></mxCell><mxCell id="a76H_n0qe2778WBYgKAY-19" value="" style="edgeStyle=orthogonalEdgeStyle;rounded=1;orthogonalLoop=1;jettySize=auto;html=1;fontSize=18;entryX=0;entryY=0.5;entryDx=0;entryDy=0;exitX=1;exitY=1;exitDx=0;exitDy=0;sketch=1;" parent="1" source="a76H_n0qe2778WBYgKAY-11" target="a76H_n0qe2778WBYgKAY-17" edge="1"><mxGeometry relative="1" as="geometry"/></mxCell><mxCell id="a76H_n0qe2778WBYgKAY-20" value="" style="edgeStyle=orthogonalEdgeStyle;rounded=1;orthogonalLoop=1;jettySize=auto;html=1;fontSize=18;entryX=0;entryY=0.5;entryDx=0;entryDy=0;sketch=1;" parent="1" source="a76H_n0qe2778WBYgKAY-11" target="a76H_n0qe2778WBYgKAY-16" edge="1"><mxGeometry relative="1" as="geometry"/></mxCell><mxCell id="a76H_n0qe2778WBYgKAY-21" value="" style="edgeStyle=orthogonalEdgeStyle;rounded=1;orthogonalLoop=1;jettySize=auto;html=1;fontSize=18;sketch=1;" parent="1" source="a76H_n0qe2778WBYgKAY-11" target="a76H_n0qe2778WBYgKAY-18" edge="1"><mxGeometry relative="1" as="geometry"/></mxCell><mxCell id="a76H_n0qe2778WBYgKAY-24" value="" style="edgeStyle=orthogonalEdgeStyle;rounded=1;orthogonalLoop=1;jettySize=auto;html=1;fontSize=18;entryX=0;entryY=0.5;entryDx=0;entryDy=0;sketch=1;" parent="1" source="a76H_n0qe2778WBYgKAY-11" target="a76H_n0qe2778WBYgKAY-23" edge="1"><mxGeometry relative="1" as="geometry"/></mxCell><mxCell id="a76H_n0qe2778WBYgKAY-25" value="" style="edgeStyle=orthogonalEdgeStyle;rounded=1;orthogonalLoop=1;jettySize=auto;html=1;fontSize=18;entryX=0;entryY=0.5;entryDx=0;entryDy=0;sketch=1;" parent="1" source="a76H_n0qe2778WBYgKAY-11" target="a76H_n0qe2778WBYgKAY-22" edge="1"><mxGeometry relative="1" as="geometry"/></mxCell><mxCell id="a76H_n0qe2778WBYgKAY-11" value="Diagram&lt;br&gt;UseCase" style="ellipse;whiteSpace=wrap;html=1;glass=1;fontSize=18;sketch=1;rounded=1;" parent="1" vertex="1"><mxGeometry x="414" y="200" width="120" height="80" as="geometry"/></mxCell><mxCell id="a76H_n0qe2778WBYgKAY-13" value="" style="endArrow=classic;html=1;rounded=1;fontSize=18;entryX=0.5;entryY=1;entryDx=0;entryDy=0;exitX=0.5;exitY=0;exitDx=0;exitDy=0;sketch=1;" parent="1" source="a76H_n0qe2778WBYgKAY-11" target="a76H_n0qe2778WBYgKAY-8" edge="1"><mxGeometry width="50" height="50" relative="1" as="geometry"><mxPoint x="560" y="150" as="sourcePoint"/><mxPoint x="610" y="100" as="targetPoint"/></mxGeometry></mxCell><mxCell id="a76H_n0qe2778WBYgKAY-15" value="Calculator" style="swimlane;fontStyle=0;childLayout=stackLayout;horizontal=1;startSize=30;horizontalStack=0;resizeParent=1;resizeParentMax=0;resizeLast=0;collapsible=1;marginBottom=0;glass=1;fontSize=18;sketch=1;rounded=1;" parent="1" vertex="1"><mxGeometry x="600" y="170" width="210" height="180" as="geometry"/></mxCell><mxCell id="a76H_n0qe2778WBYgKAY-22" value="Upload from UI" style="text;strokeColor=none;fillColor=none;align=left;verticalAlign=middle;spacingLeft=4;spacingRight=4;overflow=hidden;points=[[0,0.5],[1,0.5]];portConstraint=eastwest;rotatable=0;glass=1;fontSize=18;sketch=1;rounded=1;" parent="a76H_n0qe2778WBYgKAY-15" vertex="1"><mxGeometry y="30" width="210" height="30" as="geometry"/></mxCell><mxCell id="a76H_n0qe2778WBYgKAY-23" value="Upload from OStorage" style="text;strokeColor=none;fillColor=none;align=left;verticalAlign=middle;spacingLeft=4;spacingRight=4;overflow=hidden;points=[[0,0.5],[1,0.5]];portConstraint=eastwest;rotatable=0;glass=1;fontSize=18;sketch=1;rounded=1;" parent="a76H_n0qe2778WBYgKAY-15" vertex="1"><mxGeometry y="60" width="210" height="30" as="geometry"/></mxCell><mxCell id="a76H_n0qe2778WBYgKAY-16" value="Split to Elements" style="text;strokeColor=none;fillColor=none;align=left;verticalAlign=middle;spacingLeft=4;spacingRight=4;overflow=hidden;points=[[0,0.5],[1,0.5]];portConstraint=eastwest;rotatable=0;glass=1;fontSize=18;sketch=1;rounded=1;" parent="a76H_n0qe2778WBYgKAY-15" vertex="1"><mxGeometry y="90" width="210" height="30" as="geometry"/></mxCell><mxCell id="a76H_n0qe2778WBYgKAY-17" value="Store in Ostore" style="text;strokeColor=none;fillColor=none;align=left;verticalAlign=middle;spacingLeft=4;spacingRight=4;overflow=hidden;points=[[0,0.5],[1,0.5]];portConstraint=eastwest;rotatable=0;glass=1;fontSize=18;sketch=1;rounded=1;" parent="a76H_n0qe2778WBYgKAY-15" vertex="1"><mxGeometry y="120" width="210" height="30" as="geometry"/></mxCell><mxCell id="a76H_n0qe2778WBYgKAY-18" value="Store in Gstore" style="text;strokeColor=none;fillColor=none;align=left;verticalAlign=middle;spacingLeft=4;spacingRight=4;overflow=hidden;points=[[0,0.5],[1,0.5]];portConstraint=eastwest;rotatable=0;glass=1;fontSize=18;sketch=1;rounded=1;" parent="a76H_n0qe2778WBYgKAY-15" vertex="1"><mxGeometry y="150" width="210" height="30" as="geometry"/></mxCell><mxCell id="a76H_n0qe2778WBYgKAY-31" value="" style="endArrow=classic;html=1;rounded=1;fontSize=18;entryX=0;entryY=0.5;entryDx=0;entryDy=0;sketch=1;" parent="1" source="a76H_n0qe2778WBYgKAY-16" target="a76H_n0qe2778WBYgKAY-1" edge="1"><mxGeometry width="50" height="50" relative="1" as="geometry"><mxPoint x="390" y="580" as="sourcePoint"/><mxPoint x="440" y="530" as="targetPoint"/></mxGeometry></mxCell><mxCell id="a76H_n0qe2778WBYgKAY-32" value="" style="endArrow=classic;html=1;rounded=1;fontSize=18;entryX=0;entryY=0.5;entryDx=0;entryDy=0;exitX=1;exitY=0.5;exitDx=0;exitDy=0;sketch=1;" parent="1" source="a76H_n0qe2778WBYgKAY-18" target="a76H_n0qe2778WBYgKAY-6" edge="1"><mxGeometry width="50" height="50" relative="1" as="geometry"><mxPoint x="390" y="580" as="sourcePoint"/><mxPoint x="440" y="530" as="targetPoint"/></mxGeometry></mxCell><mxCell id="a76H_n0qe2778WBYgKAY-36" value="" style="endArrow=classic;html=1;rounded=1;sketch=1;fontSize=18;exitX=1;exitY=0.5;exitDx=0;exitDy=0;entryX=0;entryY=0.5;entryDx=0;entryDy=0;" parent="1" source="a76H_n0qe2778WBYgKAY-17" target="a76H_n0qe2778WBYgKAY-2" edge="1"><mxGeometry width="50" height="50" relative="1" as="geometry"><mxPoint x="940" y="340" as="sourcePoint"/><mxPoint x="990" y="290" as="targetPoint"/></mxGeometry></mxCell></root></mxGraphModel></diagram></mxfile>